<svg width="80" height="80" viewBox="0 0 80 80" fill="none" xmlns="http://www.w3.org/2000/svg">
<rect width="80" height="80" rx="4" fill="#26A6D1"/>
<path d="M39.9999 20C51.0462 20 60 28.955 60 40.0001C60 51.0464 51.0462 60 39.9999 60C28.9536 60 20 51.0462 20 40.0001C20 28.955 28.9538 20 39.9999 20Z" fill="#26A6D1"/>
<path d="M60 27.68C58.5289 28.3068 56.9459 28.7281 55.2855 28.9192C56.982 27.9456 58.2827 26.4076 58.8951 24.5709C57.3082 25.4737 55.5528 26.1276 53.6817 26.4783C52.1852 24.9528 50.0532 24 47.6918 24C43.1625 24 39.4877 27.514 39.4877 31.8518C39.4877 32.4683 39.5594 33.0682 39.7001 33.6432C32.8809 33.3153 26.832 30.1872 22.7868 25.4364C22.0796 26.5966 21.6755 27.9436 21.6755 29.384C21.6755 32.1072 23.1234 34.5148 25.3251 35.9201C23.9781 35.8786 22.7151 35.5277 21.6061 34.9363V35.036C21.6061 38.8425 24.4347 42.0162 28.1895 42.7384C27.5013 42.917 26.7772 43.0145 26.0279 43.0145C25.4996 43.0145 24.9861 42.9669 24.4851 42.8734C25.529 45.9951 28.5599 48.2657 32.1526 48.3281C29.343 50.4368 25.8048 51.6905 21.9596 51.6905C21.2965 51.6905 20.6441 51.6532 20 51.5807C23.6348 53.8097 27.9454 55.1111 32.582 55.1111C47.677 55.1111 55.9317 43.1393 55.9317 32.7613L55.9086 31.7442C57.508 30.6398 58.8993 29.2575 60 27.68Z" fill="white"/>
</svg>
