<svg 
  width="80" 
  height="80" 
  viewBox="0 0 80 80" 
  fill="none" 
  xmlns="http://www.w3.org/2000/svg"
>
  <rect width="80" height="80" rx="4" fill="#4CAF50"/>
  <path d="M20 60L22.7586 50C20.9655 46.8966 20 43.4483 20 39.862C20 28.9655 28.9655 20 39.931 20C50.8965 20 60 28.9655 60 39.862C60 50.7585 50.8966 60 39.931 60C36.4827 60 33.1724 58.8966 30.2069 57.2414L20 60Z" fill="#EDEDED"/>
  <path d="M30.7587 53.6552L31.3794 54.0001C33.9311 55.5863 36.8967 56.5518 40.0001 56.5518C49.0345 56.5518 56.5518 49.0345 56.5518 39.8621C56.5518 30.6897 49.0345 23.4484 39.9311 23.4484C30.8277 23.4484 23.4484 30.7587 23.4484 39.8621C23.4484 43.0345 24.3449 46.138 26.0001 48.7587L26.4139 49.3794L24.8278 55.1725L30.7587 53.6552Z" fill="#4CAF50"/>
  <path d="M34.6207 30.6207L33.3104 30.5517C32.8966 30.5517 32.4828 30.6897 32.207 30.9655C31.5863 31.5172 30.5518 32.5517 30.276 33.9311C29.7932 36.0001 30.5518 38.4828 32.3449 40.9655C34.1381 43.4483 37.5863 47.4483 43.6553 49.1724C45.5863 49.7241 47.1035 49.3793 48.3449 48.6207C49.3105 48 49.9311 47.0345 50.1381 46L50.3449 45.0344C50.4139 44.7586 50.276 44.4137 50.0001 44.2758L45.6553 42.2758C45.3794 42.1379 45.0346 42.2069 44.8277 42.4827L43.1035 44.6896C42.9656 44.8276 42.7587 44.8965 42.5518 44.8276C41.3794 44.4137 37.4484 42.7586 35.3104 38.6207C35.2414 38.4138 35.2414 38.2069 35.3794 38.069L37.0346 36.2069C37.1725 36.0001 37.2414 35.7242 37.1725 35.5172L35.1725 31.0345C35.1035 30.8276 34.8966 30.6207 34.6207 30.6207Z" fill="#FEFEFE"/>
</svg>
